<svg xmlns="http://www.w3.org/2000/svg" width="42" height="43" viewBox="0 0 42 43" fill="none"><path d="M6.15657 20.2094C7.9456 20.2094 9.39587 18.7652 9.39587 16.9836C9.39587 15.2021 7.9456 13.7578 6.15657 13.7578C4.36754 13.7578 2.91724 15.2021 2.91724 16.9836C2.91724 18.7652 4.36754 20.2094 6.15657 20.2094Z" stroke="#148160" stroke-width="2" stroke-miterlimit="10" stroke-linecap="round" stroke-linejoin="round"></path><path d="M10.1056 27.9033C10.863 27.6129 11.3465 26.9033 11.3465 26.0968V25.371C11.3465 21.5 8.97744 20.2097 6.68896 20.2097H5.65751C3.36904 20.2097 1 21.5 1 25.371V26.0968C1 26.9033 1.49959 27.6129 2.24093 27.9033C3.12731 28.242 4.48104 28.5968 6.17322 28.5968C7.8654 28.5968 9.20305 28.242 10.1056 27.9033Z" stroke="#148160" stroke-width="2" stroke-miterlimit="10" stroke-linecap="round" stroke-linejoin="round"></path><path d="M21.0486 33.1127C22.8376 33.1127 24.288 31.6685 24.288 29.8869C24.288 28.1054 22.8376 26.6611 21.0486 26.6611C19.2596 26.6611 17.8093 28.1054 17.8093 29.8869C17.8093 31.6685 19.2596 33.1127 21.0486 33.1127Z" stroke="#148160" stroke-width="2" stroke-miterlimit="10" stroke-linecap="round" stroke-linejoin="round"></path><path d="M24.9801 40.8059C25.7375 40.5155 26.221 39.8059 26.221 38.9994V38.2736C26.221 34.4026 23.8519 33.1123 21.5634 33.1123H20.532C18.2436 33.1123 15.8745 34.4026 15.8745 38.2736V38.9994C15.8745 39.8059 16.3741 40.5155 17.1154 40.8059C18.0018 41.1446 19.3555 41.4994 21.0477 41.4994C22.7399 41.4994 24.0776 41.1446 24.9801 40.8059Z" stroke="#148160" stroke-width="2" stroke-miterlimit="10" stroke-linecap="round" stroke-linejoin="round"></path><path d="M21.0486 7.95161C22.8376 7.95161 24.288 6.50737 24.288 4.72581C24.288 2.94424 22.8376 1.5 21.0486 1.5C19.2596 1.5 17.8093 2.94424 17.8093 4.72581C17.8093 6.50737 19.2596 7.95161 21.0486 7.95161Z" stroke="#148160" stroke-width="2" stroke-miterlimit="10" stroke-linecap="round" stroke-linejoin="round"></path><path d="M24.9801 15.6447C25.7375 15.3544 26.221 14.6447 26.221 13.8383V13.1125C26.221 9.24149 23.8519 7.95117 21.5634 7.95117H20.532C18.2436 7.95117 15.8745 9.24149 15.8745 13.1125V13.8383C15.8745 14.6447 16.3741 15.3544 17.1154 15.6447C18.0018 15.9834 19.3555 16.3383 21.0477 16.3383C22.7399 16.3383 24.0776 15.9834 24.9801 15.6447Z" stroke="#148160" stroke-width="2" stroke-miterlimit="10" stroke-linecap="round" stroke-linejoin="round"></path><path d="M35.8101 20.2094C37.5992 20.2094 39.0494 18.7652 39.0494 16.9836C39.0494 15.2021 37.5992 13.7578 35.8101 13.7578C34.0211 13.7578 32.5708 15.2021 32.5708 16.9836C32.5708 18.7652 34.0211 20.2094 35.8101 20.2094Z" stroke="#148160" stroke-width="2" stroke-miterlimit="10" stroke-linecap="round" stroke-linejoin="round"></path><path d="M39.7591 27.9033C40.5166 27.6129 41 26.9033 41 26.0968V25.371C41 21.5 38.631 20.2097 36.3425 20.2097H35.3111C33.0226 20.2097 30.6536 21.5 30.6536 25.371V26.0968C30.6536 26.9033 31.1532 27.6129 31.8945 27.9033C32.7809 28.242 34.1346 28.5968 35.8268 28.5968C37.519 28.5968 38.8566 28.242 39.7591 27.9033Z" stroke="#148160" stroke-width="2" stroke-miterlimit="10" stroke-linecap="round" stroke-linejoin="round"></path><path d="M34.2626 31.5645C32.7961 33.5483 30.9105 35.1935 28.7188 36.3548" stroke="#148160" stroke-width="2" stroke-miterlimit="10" stroke-linecap="round" stroke-linejoin="round"></path><path d="M8.28418 11.4188C10.0408 9.27366 12.3132 7.59624 14.924 6.54785" stroke="#148160" stroke-width="2" stroke-miterlimit="10" stroke-linecap="round" stroke-linejoin="round"></path><path d="M13.3124 36.3548C11.1207 35.1935 9.23511 33.5483 7.76855 31.5645" stroke="#148160" stroke-width="2" stroke-miterlimit="10" stroke-linecap="round" stroke-linejoin="round"></path><path d="M27.1082 6.54785C29.7189 7.59624 31.9913 9.27366 33.7479 11.4188" stroke="#148160" stroke-width="2" stroke-miterlimit="10" stroke-linecap="round" stroke-linejoin="round"></path></svg>