<svg xmlns="http://www.w3.org/2000/svg" width="42" height="43" viewBox="0 0 42 43" fill="none"><path d="M6.33037 32.3201C8.17978 32.3201 9.679 30.8522 9.679 29.0414C9.679 27.2306 8.17978 25.7627 6.33037 25.7627C4.48095 25.7627 2.98169 27.2306 2.98169 29.0414C2.98169 30.8522 4.48095 32.3201 6.33037 32.3201Z" stroke="#148160" stroke-width="2" stroke-miterlimit="10" stroke-linecap="round" stroke-linejoin="round"></path><path d="M10.4129 40.7947C11.1959 40.4997 11.6957 39.7784 11.6957 38.9587V37.5652C11.6957 33.6308 9.24671 32.3193 6.88099 32.3193H5.81472C3.449 32.3193 1 33.6308 1 37.5652V38.9587C1 39.7784 1.51645 40.4997 2.28281 40.7947C3.19911 41.139 4.59854 41.4997 6.34784 41.4997C8.09714 41.4997 9.47994 41.139 10.4129 40.7947Z" stroke="#148160" stroke-width="2" stroke-miterlimit="10" stroke-linecap="round" stroke-linejoin="round"></path><path d="M35.6526 32.3201C37.502 32.3201 39.0013 30.8522 39.0013 29.0414C39.0013 27.2306 37.502 25.7627 35.6526 25.7627C33.8032 25.7627 32.304 27.2306 32.304 29.0414C32.304 30.8522 33.8032 32.3201 35.6526 32.3201Z" stroke="#148160" stroke-width="2" stroke-miterlimit="10" stroke-linecap="round" stroke-linejoin="round"></path><path d="M31.587 40.7947C30.804 40.4997 30.3042 39.7784 30.3042 38.9587V37.5652C30.3042 33.6308 32.7532 32.3193 35.119 32.3193H36.1852C38.5509 32.3193 40.9999 33.6308 40.9999 37.5652V38.9587C40.9999 39.7784 40.4835 40.4997 39.7171 40.7947C38.8008 41.139 37.4014 41.4997 35.6521 41.4997C33.9028 41.4997 32.5033 41.139 31.587 40.7947Z" stroke="#148160" stroke-width="2" stroke-miterlimit="10" stroke-linecap="round" stroke-linejoin="round"></path><path d="M20.9925 8.05738C22.8419 8.05738 24.3411 6.58946 24.3411 4.77869C24.3411 2.96792 22.8419 1.5 20.9925 1.5C19.1431 1.5 17.6438 2.96792 17.6438 4.77869C17.6438 6.58946 19.1431 8.05738 20.9925 8.05738Z" stroke="#148160" stroke-width="2" stroke-miterlimit="10" stroke-linecap="round" stroke-linejoin="round"></path><path d="M25.0731 16.533C25.8561 16.2379 26.3559 15.5166 26.3559 14.697V13.3035C26.3559 9.36909 23.9069 8.05762 21.5411 8.05762H20.4749C18.1092 8.05762 15.6602 9.36909 15.6602 13.3035V14.697C15.6602 15.5166 16.1766 16.2379 16.943 16.533C17.8593 16.8773 19.2587 17.2379 21.008 17.2379C22.7573 17.2379 24.1401 16.8773 25.0731 16.533Z" stroke="#148160" stroke-width="2" stroke-miterlimit="10" stroke-linecap="round" stroke-linejoin="round"></path><path d="M20.9915 28.2219V19.6973" stroke="#148160" stroke-width="2" stroke-miterlimit="10" stroke-linecap="round" stroke-linejoin="round"></path><path d="M21.1919 28.4344L28.6889 32.6967" stroke="#148160" stroke-width="2" stroke-miterlimit="10" stroke-linecap="round" stroke-linejoin="round"></path><path d="M20.8915 28.5L13.3945 32.7623" stroke="#148160" stroke-width="2" stroke-miterlimit="10" stroke-linecap="round" stroke-linejoin="round"></path></svg>