<svg xmlns="http://www.w3.org/2000/svg" width="38" height="43" viewBox="0 0 38 43" fill="none"><path d="M18.7024 27.3992C20.2963 27.3992 21.5883 26.1138 21.5883 24.5282C21.5883 22.9426 20.2963 21.6572 18.7024 21.6572C17.1085 21.6572 15.8164 22.9426 15.8164 24.5282C15.8164 26.1138 17.1085 27.3992 18.7024 27.3992Z" stroke="#14A077" stroke-width="2" stroke-miterlimit="10" stroke-linecap="round" stroke-linejoin="round"></path><path d="M21.959 31.334V41.0114" stroke="#14A077" stroke-width="2" stroke-miterlimit="10" stroke-linecap="round" stroke-linejoin="round"></path><path d="M15.5098 41.0114V31.334" stroke="#14A077" stroke-width="2" stroke-miterlimit="10" stroke-linecap="round" stroke-linejoin="round"></path><path d="M7.77148 41.0114V31.334" stroke="#14A077" stroke-width="2" stroke-miterlimit="10" stroke-linecap="round" stroke-linejoin="round"></path><path d="M18.7358 27.415H17.2848C15.2856 27.415 12.9316 28.1086 12.9316 31.3344V36.157C12.9316 37.2054 13.8023 38.0602 14.8664 38.0602H15.3501" stroke="#14A077" stroke-width="2" stroke-miterlimit="10" stroke-linecap="round" stroke-linejoin="round"></path><path d="M10.6907 27.3992C12.2845 27.3992 13.5766 26.1138 13.5766 24.5282C13.5766 22.9426 12.2845 21.6572 10.6907 21.6572C9.09679 21.6572 7.80469 22.9426 7.80469 24.5282C7.80469 26.1138 9.09679 27.3992 10.6907 27.3992Z" stroke="#14A077" stroke-width="2" stroke-miterlimit="10" stroke-linecap="round" stroke-linejoin="round"></path><path d="M10.9472 27.415H9.51231C7.52921 27.415 5.19141 28.1086 5.19141 31.3344V36.157C5.19141 37.2054 6.04592 38.0602 7.11002 38.0602H7.5937" stroke="#14A077" stroke-width="2" stroke-miterlimit="10" stroke-linecap="round" stroke-linejoin="round"></path><path d="M29.6992 41.0114V31.334" stroke="#14A077" stroke-width="2" stroke-miterlimit="10" stroke-linecap="round" stroke-linejoin="round"></path><path d="M26.8118 27.3992C28.4056 27.3992 29.6977 26.1138 29.6977 24.5282C29.6977 22.9426 28.4056 21.6572 26.8118 21.6572C25.2179 21.6572 23.9258 22.9426 23.9258 24.5282C23.9258 26.1138 25.2179 27.3992 26.8118 27.3992Z" stroke="#14A077" stroke-width="2" stroke-miterlimit="10" stroke-linecap="round" stroke-linejoin="round"></path><path d="M26.5215 27.415H27.9564C29.9395 27.415 32.2773 28.1086 32.2773 31.3344V36.157C32.2773 37.2054 31.4228 38.0602 30.3587 38.0602H29.875" stroke="#14A077" stroke-width="2" stroke-miterlimit="10" stroke-linecap="round" stroke-linejoin="round"></path><path d="M18.7344 27.415H20.1854C22.1846 27.415 24.5386 28.1086 24.5386 31.3344V36.157C24.5386 37.2054 23.6679 38.0602 22.6038 38.0602H22.1202" stroke="#14A077" stroke-width="2" stroke-miterlimit="10" stroke-linecap="round" stroke-linejoin="round"></path><path d="M18.7344 41.0112V38.0596" stroke="#14A077" stroke-width="2" stroke-miterlimit="10" stroke-linecap="round" stroke-linejoin="round"></path><path d="M27.7642 10.6895L18.7355 19.0765L13.5762 15.2056" stroke="#14A077" stroke-width="2" stroke-miterlimit="10" stroke-linecap="round" stroke-linejoin="round"></path><path d="M18.7344 3.59277V4.8831" stroke="#14A077" stroke-width="2" stroke-miterlimit="10" stroke-linecap="round" stroke-linejoin="round"></path><path d="M26.475 5.67285L25.8301 6.78576" stroke="#14A077" stroke-width="2" stroke-miterlimit="10" stroke-linecap="round" stroke-linejoin="round"></path><path d="M32.134 11.334L31.0215 11.9791" stroke="#14A077" stroke-width="2" stroke-miterlimit="10" stroke-linecap="round" stroke-linejoin="round"></path><path d="M34.2136 19.0762H32.9238" stroke="#14A077" stroke-width="2" stroke-miterlimit="10" stroke-linecap="round" stroke-linejoin="round"></path><path d="M3.25781 19.0762H4.54763" stroke="#14A077" stroke-width="2" stroke-miterlimit="10" stroke-linecap="round" stroke-linejoin="round"></path><path d="M5.33789 11.334L6.45037 11.9791" stroke="#14A077" stroke-width="2" stroke-miterlimit="10" stroke-linecap="round" stroke-linejoin="round"></path><path d="M10.9961 5.673L11.641 6.78591" stroke="#14A077" stroke-width="2" stroke-miterlimit="10" stroke-linecap="round" stroke-linejoin="round"></path><path d="M34.745 26.3827C35.8413 24.0762 36.4701 21.4956 36.4701 18.7537C36.4701 8.9472 28.5377 1.01172 18.735 1.01172C8.9324 1.01172 1 8.9472 1 18.7537C1 21.4795 1.61266 24.0601 2.72513 26.3827" stroke="#14A077" stroke-width="2" stroke-miterlimit="10" stroke-linecap="round" stroke-linejoin="round"></path></svg>